<svg data-v-fde0c5aa="" xmlns="http://www.w3.org/2000/svg" viewBox="0 0 300 300" class="iconLeftSlogan"><!----><defs data-v-fde0c5aa=""><!----></defs><rect data-v-fde0c5aa="" fill="transparent" x="0" y="0" width="300px" height="300px" class="logo-background-square"></rect><defs data-v-fde0c5aa=""><!----></defs><g data-v-fde0c5aa="" id="3c1ec3d4-e8ed-4318-839e-f38aa3196477" fill="#000000" transform="matrix(2.34904427335783,0,0,2.34904427335783,115.86264373819857,123.67643024360902)"><path d="M5.73 7.28C5.73 9.46 5.05 10.21 4.07 10.21C3.21 10.21 2.38 9.58 2.38 7.97L2.38 6.02C2.38 4.98 2.94 4.21 3.92 4.21C5.11 4.21 5.73 5.07 5.73 7.28ZM7.46 7.13C7.46 5.05 6.23 3.70 4.51 3.70C3.81 3.70 2.83 4.05 2.38 4.84L2.38-0.10L0.20 0.35L0.20 0.56C0.77 0.71 0.91 0.92 0.91 1.40L0.91 10.22C0.91 10.44 1.65 10.12 2.10 9.72C2.56 10.16 3.28 10.42 4.10 10.42C6.02 10.42 7.46 9.34 7.46 7.13ZM11.09 10.08C10.58 9.95 10.51 9.56 10.51 8.79L10.51-0.10L8.33 0.35L8.33 0.56C8.90 0.71 9.03 0.92 9.03 1.41L9.03 8.79C9.03 9.51 9.00 9.93 8.47 10.08L8.47 10.29L11.09 10.29L11.09 10.08ZM16.83 7.06C16.83 9.59 16.35 10.21 15.30 10.21C14.27 10.21 13.78 9.59 13.78 7.06C13.78 4.52 14.27 3.91 15.30 3.91C16.35 3.91 16.83 4.52 16.83 7.06ZM18.59 7.06C18.59 5.21 17.44 3.70 15.30 3.70C13.17 3.70 12.03 5.21 12.03 7.06C12.03 8.89 13.17 10.42 15.30 10.42C17.44 10.42 18.59 8.89 18.59 7.06ZM23.95 5.96C23.95 7.53 23.35 7.88 22.71 7.88C22.09 7.88 21.49 7.53 21.49 5.96C21.49 4.40 22.01 4.06 22.71 4.06C23.31 4.06 23.95 4.40 23.95 5.96ZM26.63 4.93C26.92 4.68 26.96 4.23 26.71 3.92C26.53 3.72 26.25 3.64 26.00 3.68C25.68 3.72 25.09 3.92 24.71 4.48C24.26 4.09 23.59 3.85 22.71 3.85C21.06 3.85 20.06 4.83 20.06 5.96C20.06 6.71 20.47 7.46 21.18 7.77C19.85 8.22 19.89 9.45 19.89 9.45C19.89 10.01 20.17 10.39 20.57 10.57C19.70 11.02 18.96 12.10 19.46 13.08C20.02 14.18 22.40 14.35 24.33 13.27C25.80 12.45 25.86 11.31 25.86 11.31C26.11 9.34 24.46 9.31 23.49 9.31L21.67 9.31C20.10 9.31 20.89 8.01 21.39 7.87C21.74 8.02 22.16 8.09 22.71 8.09C24.39 8.09 25.38 7.10 25.38 5.96C25.38 5.46 25.20 4.97 24.86 4.62C25.10 4.30 25.49 4.23 25.48 4.34C25.44 4.52 25.49 4.70 25.62 4.86C25.87 5.15 26.32 5.19 26.63 4.93ZM20.50 12.66C20.51 12.67 19.47 11.49 20.79 10.70C21.31 10.91 21.84 10.88 21.99 10.88L23.93 10.88C25.03 10.88 25.12 11.61 25.12 11.61C25.12 11.61 25.23 12.47 24.22 13.09C22.95 13.86 21.21 13.51 20.50 12.66ZM28.99 6.72C28.99 5.17 29.72 3.91 30.53 3.91C31.25 3.91 31.99 4.82 31.99 6.72ZM33.03 8.51C32.72 9.18 31.67 9.58 30.86 9.45C29.85 9.30 29.08 8.55 28.99 6.93L33.45 6.93C33.45 4.73 32.42 3.70 30.59 3.70C28.76 3.70 27.43 5.08 27.43 7.10C27.43 8.85 28.69 10.42 30.46 10.42C32.23 10.42 33.04 9.30 33.22 8.61ZM38.18 3.75C37.73 3.86 37.04 4.16 36.41 5.21L36.41 3.70L34.22 4.17L34.22 4.38C34.79 4.59 34.92 4.80 34.92 5.28L34.92 8.78C34.92 9.51 34.89 9.91 34.36 10.08L34.36 10.29L36.99 10.29L36.99 10.08C36.48 9.94 36.41 9.56 36.41 8.78L36.41 5.57C36.89 4.69 37.65 4.45 37.62 4.65C37.60 4.86 37.69 5.08 37.86 5.26C38.23 5.61 38.79 5.60 39.14 5.25C39.49 4.90 39.49 4.33 39.14 3.98C38.89 3.74 38.46 3.68 38.18 3.75ZM48.72 8.30C48.72 9.28 48.08 9.97 47.14 9.97C45.96 9.97 45.37 9.04 45.37 6.80C45.37 4.62 46.06 3.91 47.04 3.91C47.87 3.91 48.72 4.54 48.72 6.09ZM50.90 9.91C50.33 9.87 50.19 9.74 50.19 9.06L50.19-0.10L48.01 0.35L48.01 0.56C48.58 0.71 48.72 0.88 48.72 1.37L48.72 4.16C48.27 3.88 47.68 3.70 47.01 3.70C45.11 3.70 43.65 4.75 43.65 6.97C43.65 9.04 44.88 10.42 46.62 10.42C47.29 10.42 48.27 10.11 48.72 9.34L48.72 10.15C48.72 10.15 48.72 10.46 49.11 10.40L50.90 10.12ZM55.27 6.92C55.27 6.92 55.27 8.88 55.27 8.90C55.15 9.24 54.81 9.67 54.21 9.67C53.33 9.67 53.20 8.86 53.20 8.67C53.20 7.88 53.77 7.25 55.27 6.92ZM57.83 9.37C57.75 9.66 57.44 9.66 57.44 9.66C56.78 9.66 56.78 8.74 56.78 8.74L56.78 6.50C56.78 4.84 56.34 3.70 54.66 3.70C54.66 3.70 53.94 3.65 53.33 3.98C52.57 4.38 52.36 4.77 52.23 5.00C52.11 5.22 52.12 5.53 52.29 5.77C52.51 6.09 52.98 6.16 53.30 5.94C53.62 5.70 53.70 5.25 53.47 4.93C53.34 4.76 53.19 4.68 52.99 4.65C52.91 4.63 52.98 4.38 53.47 4.13C54.52 3.63 55.27 4.40 55.27 5.84L55.27 6.68C52.85 7.29 51.67 7.52 51.67 8.99C51.67 10.42 53.28 10.42 53.28 10.42C54.26 10.42 55.09 9.90 55.29 9.25C55.41 10.43 56.57 10.42 56.57 10.42C57.39 10.42 57.95 9.88 58.04 9.45ZM59.91 2.55C60.37 2.55 60.76 2.18 60.76 1.72C60.76 1.26 60.37 0.88 59.91 0.88C59.44 0.88 59.08 1.26 59.08 1.72C59.08 2.18 59.44 2.55 59.91 2.55ZM61.36 10.08C60.86 9.94 60.79 9.56 60.79 8.79L60.79 3.70L58.60 4.17L58.60 4.38C59.18 4.62 59.32 4.82 59.32 5.29L59.32 8.79C59.32 9.51 59.29 9.91 58.76 10.08L58.76 10.29L61.36 10.29Z"></path></g><defs data-v-fde0c5aa=""><linearGradient data-v-fde0c5aa="" gradientTransform="rotate(25)" id="07ee93e3-eac1-4e76-a430-9a613d400a76" x1="0%" y1="0%" x2="100%" y2="0%"><stop data-v-fde0c5aa="" offset="0%" stop-color="#01695A" stop-opacity="1"></stop><stop data-v-fde0c5aa="" offset="100%" stop-color="#2CC26F" stop-opacity="1"></stop></linearGradient></defs><g data-v-fde0c5aa="" id="6e358562-5c84-47af-9279-12387cc10471" stroke="none" fill="url(#07ee93e3-eac1-4e76-a430-9a613d400a76)" transform="matrix(1.9791391437459633,0,0,1.9791391437459633,40,118.33377370006458)"><path d="M15.965 16.258l.707-.707 10.39 10.39-.707.707z"></path><path d="M4.935 26.357L26.018 5.274l.707.707L5.642 27.065z"></path><path d="M31 1v4.194h-4.194V1H31m1-1h-6.194v6.194H32V0zM31 26.806V31h-4.194v-4.194H31m1-1h-6.194V32H32v-6.194zM5.194 26.806V31H1v-4.194h4.194m1-1H0V32h6.194v-6.194z"></path></g><defs data-v-fde0c5aa=""><!----></defs><g data-v-fde0c5aa="" id="f91c26a3-3611-4736-b647-5fbe733234f6" fill="#000000" transform="matrix(0.6651890920091839,0,0,0.6651890920091839,116.21271855855137,166.35226556711834)"><path d="M11.17 0.43L11.17 0.64C13.34 0.64 12.29 3.26 12.10 3.93L10.64 7.94L8.50 2.06C8.48 2.00 7.98 0.64 9.24 0.64L9.24 0.43L5.12 0.43L5.12 0.64C5.53 0.64 6.02 0.69 6.43 1.75L7.20 3.84L5.78 7.88L3.57 2.06C3.54 2.00 3.07 0.64 4.30 0.64L4.30 0.43L0.18 0.43L0.18 0.64C0.60 0.64 1.08 0.69 1.50 1.75L4.91 10.29L5.12 10.29L7.31 4.14L9.73 10.29L9.94 10.29L12.31 3.99C13.52 0.98 14.18 0.64 15.02 0.64L15.02 0.43ZM21.25 3.11C21.25 5.57 20.10 5.57 18.62 5.57L18.19 5.57L18.19 0.64L18.62 0.64C20.05 0.64 21.25 0.62 21.25 3.11ZM24.74 10.08C24.37 10.05 23.44 9.84 23.16 8.78C22.46 5.98 21.42 5.63 20.50 5.66C22.08 5.52 23.17 4.91 23.17 3.11C23.17 0.77 21.41 0.43 18.62 0.43L15.55 0.43L15.55 0.64C16.17 0.64 16.49 0.94 16.49 1.81L16.49 8.62C16.49 9.69 16.16 10.08 15.55 10.08L15.55 10.29L19.17 10.29L19.17 10.08C18.58 10.08 18.19 9.67 18.19 8.71L18.19 5.78L18.84 5.78C19.03 5.78 20.38 5.78 20.80 7.24C21.70 10.28 21.41 10.28 23.56 10.29L24.74 10.29ZM25.49 0.43L25.49 0.64C26.11 0.64 26.59 0.95 26.59 1.82L26.59 8.69C26.59 9.65 26.10 10.08 25.49 10.08L25.49 10.29L29.40 10.29L29.40 10.08C28.81 10.08 28.31 9.65 28.31 8.69L28.31 1.82C28.31 0.95 28.80 0.64 29.40 0.64L29.40 0.43ZM30.18 0.43L30.18 3.08L30.39 3.08C30.48 0.69 33.01 0.64 33.22 0.64L33.77 0.64L33.77 8.76C33.77 9.70 33.25 10.08 32.66 10.08L32.66 10.29L36.58 10.29L36.58 10.08C35.99 10.08 35.48 9.70 35.48 8.76L35.48 0.64L36.02 0.64C36.12 0.64 38.78 0.69 38.86 3.08L39.07 3.08L39.07 0.43ZM40.04 0.43L40.04 0.64C40.66 0.64 41.13 0.95 41.13 1.82L41.13 8.69C41.13 9.65 40.64 10.08 40.04 10.08L40.04 10.29L43.95 10.29L43.95 10.08C43.36 10.08 42.85 9.65 42.85 8.69L42.85 1.82C42.85 0.95 43.34 0.64 43.95 0.64L43.95 0.43ZM51.58 0.43L51.58 0.64C53.45 0.63 53.45 3.30 53.45 3.95L53.45 7.81L47.60 0.43L44.59 0.43L44.59 0.64C44.95 0.67 45.36 0.55 46.26 1.67L46.82 2.38L46.82 6.75C46.82 7.38 46.82 10.08 44.76 10.08L44.76 10.29L48.90 10.29L48.90 10.08C47.01 10.08 47.03 7.38 47.03 6.75L47.03 2.60L53.06 10.29L53.66 10.29L53.66 3.95C53.66 3.30 53.62 0.63 55.69 0.64L55.69 0.43ZM62.22 6.37L62.22 6.58C63.08 6.58 63.38 6.64 63.38 8.64C63.38 9.91 62.93 10.21 61.29 10.21C59.72 10.21 58.70 9.21 58.70 5.36C58.70 1.51 59.70 0.52 61.29 0.52C62.94 0.52 64.04 1.15 64.34 3.40L64.74 3.40L64.83 1.08C63.97 0.50 62.86 0.31 61.29 0.31C58.27 0.31 56.52 2.58 56.52 5.36C56.52 8.15 58.27 10.42 61.29 10.42C62.79 10.42 64.02 10.16 64.89 9.83C64.89 6.78 65.03 6.58 65.84 6.58L65.84 6.37ZM73.26 9.27C74.16 7.92 73.61 6.40 71.75 5.17L69.51 3.70C67.55 2.42 68.40 0.52 69.92 0.52C72.20 0.52 72.90 2.27 73.09 3.33L73.30 3.33L73.30 0.98C73.30 0.98 72.13 0.31 69.92 0.31C67.83 0.31 67.14 1.39 67.14 1.39C66.02 2.98 67.03 4.31 68.70 5.38L70.92 6.80C72.60 8.01 72.23 10.21 70.42 10.21C67.98 10.21 67.27 8.18 67.05 6.90L66.84 6.90L66.84 9.59C66.84 9.59 67.93 10.42 70.42 10.42C72.63 10.42 73.26 9.27 73.26 9.27ZM78.37 0.43L78.37 0.64C78.99 0.64 79.16 1.27 79.16 2.14L79.16 8.51C79.16 9.46 78.97 10.08 78.37 10.08L78.37 10.29L82.03 10.29L82.03 10.08C81.41 10.08 80.89 9.97 80.89 8.48L80.89 5.43L81.58 5.43C81.77 5.43 83.61 5.39 83.79 6.86L84.00 6.86L84.00 3.78L83.79 3.78C83.61 5.24 81.77 5.19 81.58 5.19L80.89 5.19L80.89 0.64L81.51 0.64C82.05 0.64 85.19 0.55 85.55 3.02L85.76 3.02L85.76 0.43ZM92.05 3.11C92.05 5.57 90.90 5.57 89.42 5.57L88.98 5.57L88.98 0.64L89.42 0.64C90.85 0.64 92.05 0.62 92.05 3.11ZM95.54 10.08C95.17 10.05 94.23 9.84 93.95 8.78C93.25 5.98 92.22 5.63 91.29 5.66C92.88 5.52 93.97 4.91 93.97 3.11C93.97 0.77 92.20 0.43 89.42 0.43L86.35 0.43L86.35 0.64C86.97 0.64 87.29 0.94 87.29 1.81L87.29 8.62C87.29 9.69 86.95 10.08 86.35 10.08L86.35 10.29L89.96 10.29L89.96 10.08C89.38 10.08 88.98 9.67 88.98 8.71L88.98 5.78L89.64 5.78C89.82 5.78 91.18 5.78 91.60 7.24C92.50 10.28 92.20 10.28 94.36 10.29L95.54 10.29ZM103.31 5.43C103.31 9.28 102.30 10.21 100.65 10.21C98.98 10.21 97.96 9.28 97.96 5.43C97.96 1.60 98.98 0.52 100.65 0.52C102.30 0.52 103.31 1.60 103.31 5.43ZM105.34 5.43C105.34 2.66 103.73 0.31 100.65 0.31C97.57 0.31 95.96 2.66 95.96 5.43C95.96 8.22 97.57 10.42 100.65 10.42C103.73 10.42 105.34 8.22 105.34 5.43ZM117.78 8.62L117.78 1.88C117.78 0.98 118.26 0.64 118.86 0.64L118.86 0.43L116.06 0.43L113.27 7.95L109.77 0.43L106.61 0.43L106.61 0.64C106.96 0.67 107.66 0.67 108.18 1.60L108.18 6.78C108.18 7.57 108.05 10.08 106.15 10.08L106.15 10.29L110.25 10.29L110.25 10.08C108.50 10.08 108.39 7.59 108.39 6.78L108.39 1.93L112.31 10.42L112.52 10.42L116.06 1.04L116.06 8.62C116.06 9.67 115.64 10.08 115.05 10.08L115.05 10.29L118.96 10.29L118.96 10.08C118.36 10.08 117.78 9.67 117.78 8.62ZM122.07 0.43L122.07 3.08L122.28 3.08C122.36 0.69 124.89 0.64 125.10 0.64L125.65 0.64L125.65 8.76C125.65 9.70 125.13 10.08 124.54 10.08L124.54 10.29L128.46 10.29L128.46 10.08C127.88 10.08 127.36 9.70 127.36 8.76L127.36 0.64L127.90 0.64C128.00 0.64 130.66 0.69 130.75 3.08L130.96 3.08L130.96 0.43ZM139.20 2.41C139.20 1.19 139.20 0.77 139.86 0.64L139.86 0.43L137.17 0.43L137.17 0.64C137.56 0.77 137.54 1.19 137.54 2.41L137.54 5.43L133.92 5.43L133.92 2.41C133.92 1.19 133.90 0.77 134.29 0.64L134.29 0.43L131.59 0.43L131.59 0.64C132.26 0.77 132.26 1.23 132.26 2.41L132.26 8.39C132.26 9.63 132.33 9.88 131.59 10.08L131.59 10.29L134.29 10.29L134.29 10.08C133.90 9.94 133.92 9.67 133.92 8.39L133.92 5.70L137.54 5.70L137.54 8.39C137.54 9.59 137.55 9.94 137.17 10.08L137.17 10.29L139.86 10.29L139.86 10.08C139.13 9.88 139.20 9.53 139.20 8.39L139.20 2.41ZM147.80 7.31C147.35 10.11 144.26 10.08 143.64 10.08L143.07 10.08L143.07 5.42L143.77 5.42C143.95 5.42 145.77 5.42 145.88 6.86L146.09 6.86L146.09 3.78L145.88 3.78C145.77 5.21 143.96 5.21 143.77 5.21L143.07 5.21L143.07 0.64L143.70 0.64C144.27 0.64 147.38 0.66 147.62 3.02L147.83 3.02L147.83 0.43L140.55 0.43L140.55 0.64C141.16 0.64 141.33 1.27 141.33 2.14L141.33 8.51C141.33 9.46 141.13 10.08 140.55 10.08L140.55 10.29L148.01 10.29L148.01 7.31ZM162.62 0.43L162.62 0.64C164.79 0.64 163.74 3.26 163.55 3.93L162.09 7.94L159.95 2.06C159.94 2.00 159.43 0.64 160.69 0.64L160.69 0.43L156.58 0.43L156.58 0.64C156.98 0.64 157.47 0.69 157.88 1.75L158.65 3.84L157.23 7.88L155.02 2.06C154.99 2.00 154.52 0.64 155.75 0.64L155.75 0.43L151.63 0.43L151.63 0.64C152.05 0.64 152.53 0.69 152.95 1.75L156.37 10.29L156.58 10.29L158.76 4.14L161.18 10.29L161.39 10.29L163.76 3.99C164.98 0.98 165.63 0.64 166.47 0.64L166.47 0.43ZM167.33 0.43L167.33 0.64C167.94 0.64 168.42 0.95 168.42 1.82L168.42 8.69C168.42 9.65 167.93 10.08 167.33 10.08L167.33 10.29L171.23 10.29L171.23 10.08C170.65 10.08 170.14 9.65 170.14 8.69L170.14 1.82C170.14 0.95 170.63 0.64 171.23 0.64L171.23 0.43ZM178.82 9.27C179.72 7.92 179.17 6.40 177.31 5.17L175.07 3.70C173.11 2.42 173.96 0.52 175.48 0.52C177.76 0.52 178.46 2.27 178.65 3.33L178.86 3.33L178.86 0.98C178.86 0.98 177.69 0.31 175.48 0.31C173.39 0.31 172.70 1.39 172.70 1.39C171.58 2.98 172.59 4.31 174.26 5.38L176.48 6.80C178.16 8.01 177.79 10.21 175.98 10.21C173.54 10.21 172.83 8.18 172.61 6.90L172.40 6.90L172.40 9.59C172.40 9.59 173.49 10.42 175.98 10.42C178.19 10.42 178.82 9.27 178.82 9.27ZM187.61 7.31C187.17 10.11 184.07 10.08 183.46 10.08L182.88 10.08L182.88 5.42L183.58 5.42C183.76 5.42 185.58 5.42 185.70 6.86L185.91 6.86L185.91 3.78L185.70 3.78C185.58 5.21 183.78 5.21 183.58 5.21L182.88 5.21L182.88 0.64L183.51 0.64C184.09 0.64 187.19 0.66 187.43 3.02L187.64 3.02L187.64 0.43L180.36 0.43L180.36 0.64C180.98 0.64 181.15 1.27 181.15 2.14L181.15 8.51C181.15 9.46 180.95 10.08 180.36 10.08L180.36 10.29L187.82 10.29L187.82 7.31ZM199.88 5.39C199.88 9.90 197.67 10.08 196.24 10.08L195.62 10.08L195.62 0.64L196.24 0.64C197.69 0.64 199.88 0.95 199.88 5.39ZM201.95 5.39C201.95 1.29 199.02 0.43 196.24 0.43L192.88 0.43L192.88 0.64C193.49 0.64 193.87 1.36 193.87 2.23L193.87 8.50C193.87 9.45 193.48 10.08 192.88 10.08L192.88 10.29L196.24 10.29C199.02 10.29 201.95 9.56 201.95 5.39ZM204.23 7.21L205.84 2.84L207.58 7.21ZM211.39 10.08C211.01 10.05 210.69 10.12 210.22 9.00C210.22 9.00 209.29 6.61 206.71 0.43L206.53 0.43L204.13 6.82C202.85 10.08 202.50 10.07 202.05 10.08L202.05 10.29L205.34 10.29L205.34 10.08C203.25 10.16 203.99 7.98 204.19 7.42L207.66 7.42L208.11 8.54C208.28 8.93 208.71 10.08 207.79 10.08L207.79 10.29L211.39 10.29ZM212.25 0.43L212.25 0.64C212.87 0.64 213.35 0.95 213.35 1.82L213.35 8.69C213.35 9.65 212.86 10.08 212.25 10.08L212.25 10.29L216.16 10.29L216.16 10.08C215.57 10.08 215.07 9.65 215.07 8.69L215.07 1.82C215.07 0.95 215.56 0.64 216.16 0.64L216.16 0.43Z"></path></g></svg>